<?xml version="1.0" standalone="no"?>
<!DOCTYPE svg PUBLIC "-//W3C//DTD SVG 20010904//EN"
 "http://www.w3.org/TR/2001/REC-SVG-20010904/DTD/svg10.dtd">
<svg version="1.0" xmlns="http://www.w3.org/2000/svg"
 width="260.000000pt" height="260.000000pt" viewBox="0 0 260.000000 260.000000"
 preserveAspectRatio="xMidYMid meet">
<metadata>
Created by potrace 1.14, written by Peter Selinger 2001-2017
</metadata>
<g transform="translate(0.000000,260.000000) scale(0.100000,-0.100000)"
fill="#000000" stroke="none">
<path d="M677 2454 c-68 -11 -105 -23 -165 -56 -210 -115 -324 -251 -382 -458
-49 -173 -45 -241 25 -465 20 -67 100 -179 172 -242 120 -106 206 -148 408
-200 90 -23 234 -12 355 27 116 37 153 38 185 5 29 -28 27 0 26 -374 -1 -163
3 -279 10 -305 6 -22 27 -64 48 -93 61 -89 55 -88 546 -88 l420 0 48 25 c27
13 57 36 67 50 41 59 44 89 43 487 -1 419 -6 461 -60 503 -61 48 -106 53 -463
57 -184 2 -345 5 -357 8 -13 3 -30 17 -39 31 -16 24 -16 29 4 87 32 90 52 210
51 302 0 103 -29 252 -57 296 -12 19 -31 54 -43 78 -12 24 -59 81 -104 126
-69 70 -99 91 -186 135 -83 42 -122 55 -194 66 -110 17 -241 16 -358 -2z"/>
</g>
</svg>
